<svg width="100%" height="auto" xmlns="http://www.w3.org/2000/svg" viewBox="39 438 1801 1820" xmlns:xlink="http://www.w3.org/1999/xlink" xml:space="preserve" overflow="visible"><g transform="translate(-39 -438)"><path d="M119 593 916 593 916 1058 119 1058Z" stroke="#000000" stroke-width="13.75" stroke-linecap="square" stroke-miterlimit="8" fill="none" fill-rule="evenodd"/><path d="M345 626C326.775 626 312 640.998 312 659.5 312 678.002 326.775 693 345 693 363.226 693 378 678.002 378 659.5 378 640.998 363.226 626 345 626Z" fill="#1E84FA" fill-rule="evenodd"/><path d="M178.5 726C159.998 726 145 740.775 145 759 145 777.225 159.998 792 178.5 792 197.002 792 212 777.225 212 759 212 740.775 197.002 726 178.5 726Z" fill="#1E84FA" fill-rule="evenodd"/><path d="M278.5 693C259.999 693 245 707.775 245 726 245 744.225 259.999 759 278.5 759 297.002 759 312 744.225 312 726 312 707.775 297.002 693 278.5 693Z" fill="#1E84FA" fill-rule="evenodd"/><path d="M212 626C193.775 626 179 640.998 179 659.5 179 678.002 193.775 693 212 693 230.226 693 245 678.002 245 659.5 245 640.998 230.226 626 212 626Z" fill="#1E84FA" fill-rule="evenodd"/><path d="M278.5 826C259.999 826 245 840.775 245 859 245 877.226 259.999 892 278.5 892 297.002 892 312 877.226 312 859 312 840.775 297.002 826 278.5 826Z" fill="#1E84FA" fill-rule="evenodd"/><path d="M378.5 759C359.999 759 345 773.998 345 792.5 345 811.002 359.999 826 378.5 826 397.002 826 412 811.002 412 792.5 412 773.998 397.002 759 378.5 759Z" fill="#1E84FA" fill-rule="evenodd"/><path d="M446 659C427.774 659 413 673.998 413 692.5 413 711.002 427.774 726 446 726 464.225 726 479 711.002 479 692.5 479 673.998 464.225 659 446 659Z" fill="#1E84FA" fill-rule="evenodd"/><path d="M550.5 626C531.998 626 517 640.998 517 659.5 517 678.002 531.998 693 550.5 693 569.002 693 584 678.002 584 659.5 584 640.998 569.002 626 550.5 626Z" fill="#1E84FA" fill-rule="evenodd"/><path d="M484 744C465.775 744 451 758.998 451 777.5 451 796.001 465.775 811 484 811 502.225 811 517 796.001 517 777.5 517 758.998 502.225 744 484 744Z" fill="#1E84FA" fill-rule="evenodd"/><path d="M479.5 826C460.998 826 446 840.775 446 859 446 877.226 460.998 892 479.5 892 498.001 892 513 877.226 513 859 513 840.775 498.001 826 479.5 826Z" fill="#1E84FA" fill-rule="evenodd"/><path d="M378.5 859C359.999 859 345 873.998 345 892.5 345 911.002 359.999 926 378.5 926 397.002 926 412 911.002 412 892.5 412 873.998 397.002 859 378.5 859Z" fill="#1E84FA" fill-rule="evenodd"/><path d="M212 959C193.775 959 179 973.775 179 992 179 1010.23 193.775 1025 212 1025 230.226 1025 245 1010.23 245 992 245 973.775 230.226 959 212 959Z" fill="#1E84FA" fill-rule="evenodd"/><path d="M311.5 926C292.999 926 278 940.775 278 959 278 977.226 292.999 992 311.5 992 330.002 992 345 977.226 345 959 345 940.775 330.002 926 311.5 926Z" fill="#1E84FA" fill-rule="evenodd"/><path d="M412.5 960C393.999 960 379 974.999 379 993.5 379 1012 393.999 1027 412.5 1027 431.001 1027 446 1012 446 993.5 446 974.999 431.001 960 412.5 960Z" fill="#1E84FA" fill-rule="evenodd"/><path d="M178.5 842C159.998 842 145 856.998 145 875.5 145 894.001 159.998 909 178.5 909 197.002 909 212 894.001 212 875.5 212 856.998 197.002 842 178.5 842Z" fill="#1E84FA" fill-rule="evenodd"/><path d="M567 993.42C567.265 893.759 567.529 892.434 569.118 889.518 570.706 885.807 573.089 881.831 577.324 878.385 584.207 872.554 599.826 868.578 610.415 862.217 621.269 855.856 631.858 848.434 641.388 839.687 651.712 830.675 659.125 816.892 669.978 809.206 680.568 801.784 690.892 797.013 705.452 793.302 725.836 788.266 764.221 787.471 782.752 788.266 792.812 788.796 797.577 788.796 806.313 792.507 819.549 797.808 837.286 812.916 851.051 824.579 865.082 836.506 883.613 852.145 890.231 863.012 894.202 869.374 894.467 873.614 895.526 879.976 896.849 888.193 897.643 900.385 896.32 908.337 895.526 914.698 893.672 918.939 891.025 924.771 887.584 931.662 882.554 940.674 876.2 946.505 869.582 952.602 861.641 956.047 851.846 960.288 838.874 966.12 818.225 967.71 804.195 975.662 790.694 983.348 777.722 1000.84 768.721 1006.67 763.956 1009.59 762.633 1009.85 756.809 1011.71 742.514 1016.22 699.098 1023.37 679.509 1025.76 667.596 1027.35 659.389 1027.35 650.918 1027.35 643.771 1027.61 638.741 1028.67 631.328 1027.35 620.475 1025.49 602.738 1017.81 592.943 1012.77 586.325 1009.59 581.56 1006.14 577.324 1002.43 573.883 998.987 568.588 994.746 568.588 991.565 568.853 989.445 572.294 985.999 574.147 985.734 575.736 985.204 577.854 986.794 578.913 987.854 579.707 989.18 580.236 991.83 579.442 993.155 578.648 994.746 573.883 996.866 572.03 996.336 570.441 995.806 568.323 992.095 568.853 990.505 569.118 988.649 573.353 985.734 575.471 985.734 576.795 985.734 578.913 987.854 579.442 988.914 579.707 989.975 578.118 991.3 578.913 992.625 579.971 995.011 586.59 997.396 591.355 1000.05 597.708 1003.49 606.179 1008.26 613.856 1010.91 621.269 1013.83 628.152 1016.22 636.888 1017.28 648.536 1018.34 661.772 1017.54 677.391 1015.69 698.834 1013.3 740.396 1004.55 753.897 1000.84 758.927 999.517 759.985 999.517 764.221 997.131 772.428 992.095 784.605 974.601 797.312 967.71 809.754 960.818 826.961 960.288 838.874 955.517 848.139 952.071 856.611 947.565 862.964 943.855 867.464 940.939 870.906 939.084 873.818 935.638 876.995 931.662 879.377 926.361 881.23 921.855 883.348 917.349 885.201 913.903 885.731 908.337 886.789 898.795 887.848 881.566 882.554 869.639 876.2 856.121 858.199 843.663 846.286 833.326 836.227 824.314 824.314 815.832 816.637 810.531 811.607 807.085 808.695 804.435 804.46 802.579 800.224 800.724 795.724 799.929 790.429 799.133 783.811 798.603 775.075 798.603 767.927 799.398 761.574 800.194 757.603 802.844 750.191 803.639 738.543 805.23 718.159 800.989 704.658 804.435 692.745 807.35 681.626 813.711 673.155 820.338 665.743 826.434 663.096 834.651 656.213 841.543 647.477 850.554 635.829 860.627 624.181 868.048 611.739 875.735 590.296 879.976 583.148 886.867 579.442 890.578 578.913 892.434 577.324 898.53 573.618 914.698 582.354 984.143 576.795 994.746 575.471 997.396 573.089 998.457 571.5 998.457 569.912 998.191 567 993.42 567 993.42" fill="#1E1E1E" fill-rule="evenodd"/><path d="M618.5 889 648 941 589 941 618.5 889Z" fill="#FF751F" fill-rule="evenodd"/><path d="M645.5 958 675 1010 616 1010 645.5 958Z" fill="#FF751F" fill-rule="evenodd"/><path d="M836.5 864 866 917 807 917 836.5 864Z" fill="#FF751F" fill-rule="evenodd"/><path d="M682.5 892 712 944 653 944 682.5 892Z" fill="#FF751F" fill-rule="evenodd"/><path d="M761 809 791 861 731 861 761 809Z" fill="#FF751F" fill-rule="evenodd"/><path d="M686 826 716 878 656 878 686 826Z" fill="#FF751F" fill-rule="evenodd"/><path d="M512.5 943C493.998 943 479 957.998 479 976.5 479 995.001 493.998 1010 512.5 1010 531.001 1010 546 995.001 546 976.5 546 957.998 531.001 943 512.5 943Z" fill="#1E84FA" fill-rule="evenodd"/><path d="M555.5 802C536.999 802 522 816.774 522 835 522 853.225 536.999 868 555.5 868 574.002 868 589 853.225 589 835 589 816.774 574.002 802 555.5 802Z" fill="#1E84FA" fill-rule="evenodd"/><path d="M803.5 607C784.998 607 770 621.998 770 640.5 770 659.002 784.998 674 803.5 674 822.002 674 837 659.002 837 640.5 837 621.998 822.002 607 803.5 607Z" fill="#1E84FA" fill-rule="evenodd"/><path d="M854 711C835.774 711 821 725.998 821 744.5 821 763.001 835.774 778 854 778 872.225 778 887 763.001 887 744.5 887 725.998 872.225 711 854 711Z" fill="#1E84FA" fill-rule="evenodd"/><path d="M741 693C722.775 693 708 707.775 708 726 708 744.225 722.775 759 741 759 759.226 759 774 744.225 774 726 774 707.775 759.226 693 741 693Z" fill="#1E84FA" fill-rule="evenodd"/><path d="M649 638C630.775 638 616 652.998 616 671.5 616 690.002 630.775 705 649 705 667.225 705 682 690.002 682 671.5 682 652.998 667.225 638 649 638Z" fill="#1E84FA" fill-rule="evenodd"/><path d="M622 726C603.774 726 589 740.775 589 759 589 777.225 603.774 792 622 792 640.225 792 655 777.225 655 759 655 740.775 640.225 726 622 726Z" fill="#1E84FA" fill-rule="evenodd"/><path d="M753 874 783 926 723 926 753 874Z" fill="#FF751F" fill-rule="evenodd"/><path d="M731.5 934 761 986 702 986 731.5 934Z" fill="#FF751F" fill-rule="evenodd"/><path d="M993 593 1789 593 1789 1058 993 1058Z" stroke="#000000" stroke-width="13.75" stroke-linecap="square" stroke-miterlimit="8" fill="none" fill-rule="evenodd"/><path d="M1218.5 626C1200 626 1185 640.998 1185 659.5 1185 678.002 1200 693 1218.5 693 1237 693 1252 678.002 1252 659.5 1252 640.998 1237 626 1218.5 626Z" fill="#1E84FA" fill-rule="evenodd"/><path d="M1052 726C1033.77 726 1019 740.775 1019 759 1019 777.225 1033.77 792 1052 792 1070.23 792 1085 777.225 1085 759 1085 740.775 1070.23 726 1052 726Z" fill="#1E84FA" fill-rule="evenodd"/><path d="M1152 693C1133.77 693 1119 707.775 1119 726 1119 744.225 1133.77 759 1152 759 1170.23 759 1185 744.225 1185 726 1185 707.775 1170.23 693 1152 693Z" fill="#1E84FA" fill-rule="evenodd"/><path d="M1085.5 626C1067 626 1052 640.998 1052 659.5 1052 678.002 1067 693 1085.5 693 1104 693 1119 678.002 1119 659.5 1119 640.998 1104 626 1085.5 626Z" fill="#1E84FA" fill-rule="evenodd"/><path d="M1152 826C1133.77 826 1119 840.775 1119 859 1119 877.226 1133.77 892 1152 892 1170.23 892 1185 877.226 1185 859 1185 840.775 1170.23 826 1152 826Z" fill="#1E84FA" fill-rule="evenodd"/><path d="M1252 759C1233.77 759 1219 773.998 1219 792.5 1219 811.002 1233.77 826 1252 826 1270.23 826 1285 811.002 1285 792.5 1285 773.998 1270.23 759 1252 759Z" fill="#1E84FA" fill-rule="evenodd"/><path d="M1319.5 659C1301 659 1286 673.998 1286 692.5 1286 711.002 1301 726 1319.5 726 1338 726 1353 711.002 1353 692.5 1353 673.998 1338 659 1319.5 659Z" fill="#1E84FA" fill-rule="evenodd"/><path d="M1424.5 626C1406 626 1391 640.998 1391 659.5 1391 678.002 1406 693 1424.5 693 1443 693 1458 678.002 1458 659.5 1458 640.998 1443 626 1424.5 626Z" fill="#1E84FA" fill-rule="evenodd"/><path d="M1357.5 744C1339 744 1324 758.998 1324 777.5 1324 796.001 1339 811 1357.5 811 1376 811 1391 796.001 1391 777.5 1391 758.998 1376 744 1357.5 744Z" fill="#1E84FA" fill-rule="evenodd"/><path d="M1353 826C1334.77 826 1320 840.775 1320 859 1320 877.226 1334.77 892 1353 892 1371.23 892 1386 877.226 1386 859 1386 840.775 1371.23 826 1353 826Z" fill="#1E84FA" fill-rule="evenodd"/><path d="M1252 859C1233.77 859 1219 873.998 1219 892.5 1219 911.002 1233.77 926 1252 926 1270.23 926 1285 911.002 1285 892.5 1285 873.998 1270.23 859 1252 859Z" fill="#1E84FA" fill-rule="evenodd"/><path d="M1085.5 959C1067 959 1052 973.775 1052 992 1052 1010.23 1067 1025 1085.5 1025 1104 1025 1119 1010.23 1119 992 1119 973.775 1104 959 1085.5 959Z" fill="#1E84FA" fill-rule="evenodd"/><path d="M1185.5 926C1167 926 1152 940.775 1152 959 1152 977.226 1167 992 1185.5 992 1204 992 1219 977.226 1219 959 1219 940.775 1204 926 1185.5 926Z" fill="#1E84FA" fill-rule="evenodd"/><path d="M1286.5 960C1268 960 1253 974.999 1253 993.5 1253 1012 1268 1027 1286.5 1027 1305 1027 1320 1012 1320 993.5 1320 974.999 1305 960 1286.5 960Z" fill="#1E84FA" fill-rule="evenodd"/><path d="M1052 842C1033.77 842 1019 856.998 1019 875.5 1019 894.001 1033.77 909 1052 909 1070.23 909 1085 894.001 1085 875.5 1085 856.998 1070.23 842 1052 842Z" fill="#1E84FA" fill-rule="evenodd"/><path d="M1492 889 1522 941 1462 941 1492 889Z" fill="#FF751F" fill-rule="evenodd"/><path d="M1519 958 1549 1010 1489 1010 1519 958Z" fill="#FF751F" fill-rule="evenodd"/><path d="M1710 864 1740 917 1680 917 1710 864Z" fill="#FF751F" fill-rule="evenodd"/><path d="M1556 892 1586 944 1526 944 1556 892Z" fill="#FF751F" fill-rule="evenodd"/><path d="M1634.5 809 1664 861 1605 861 1634.5 809Z" fill="#FF751F" fill-rule="evenodd"/><path d="M1559.5 826 1589 878 1530 878 1559.5 826Z" fill="#FF751F" fill-rule="evenodd"/><path d="M1386 943C1367.77 943 1353 957.998 1353 976.5 1353 995.001 1367.77 1010 1386 1010 1404.23 1010 1419 995.001 1419 976.5 1419 957.998 1404.23 943 1386 943Z" fill="#1E84FA" fill-rule="evenodd"/><path d="M1429 802C1410.77 802 1396 816.774 1396 835 1396 853.225 1410.77 868 1429 868 1447.23 868 1462 853.225 1462 835 1462 816.774 1447.23 802 1429 802Z" fill="#1E84FA" fill-rule="evenodd"/><path d="M1677 607C1658.77 607 1644 621.998 1644 640.5 1644 659.002 1658.77 674 1677 674 1695.23 674 1710 659.002 1710 640.5 1710 621.998 1695.23 607 1677 607Z" fill="#1E84FA" fill-rule="evenodd"/><path d="M1727.5 711C1709 711 1694 725.998 1694 744.5 1694 763.001 1709 778 1727.5 778 1746 778 1761 763.001 1761 744.5 1761 725.998 1746 711 1727.5 711Z" fill="#1E84FA" fill-rule="evenodd"/><path d="M1614.5 693C1596 693 1581 707.775 1581 726 1581 744.225 1596 759 1614.5 759 1633 759 1648 744.225 1648 726 1648 707.775 1633 693 1614.5 693Z" fill="#1E84FA" fill-rule="evenodd"/><path d="M1522.5 638C1504 638 1489 652.998 1489 671.5 1489 690.002 1504 705 1522.5 705 1541 705 1556 690.002 1556 671.5 1556 652.998 1541 638 1522.5 638Z" fill="#1E84FA" fill-rule="evenodd"/><path d="M1495.5 726C1477 726 1462 740.775 1462 759 1462 777.225 1477 792 1495.5 792 1514 792 1529 777.225 1529 759 1529 740.775 1514 726 1495.5 726Z" fill="#1E84FA" fill-rule="evenodd"/><path d="M1627 874 1657 926 1597 926 1627 874Z" fill="#FF751F" fill-rule="evenodd"/><path d="M1605 934 1635 986 1575 986 1605 934Z" fill="#FF751F" fill-rule="evenodd"/><path d="M997 1138 1794 1138 1794 1603 997 1603Z" stroke="#000000" stroke-width="13.75" stroke-linecap="square" stroke-miterlimit="8" fill="none" fill-rule="evenodd"/><path d="M1223.5 1171C1205 1171 1190 1185.77 1190 1204 1190 1222.23 1205 1237 1223.5 1237 1242 1237 1257 1222.23 1257 1204 1257 1185.77 1242 1171 1223.5 1171Z" fill="#1E84FA" fill-rule="evenodd"/><path d="M1057 1271C1038.77 1271 1024 1285.77 1024 1304 1024 1322.23 1038.77 1337 1057 1337 1075.23 1337 1090 1322.23 1090 1304 1090 1285.77 1075.23 1271 1057 1271Z" fill="#1E84FA" fill-rule="evenodd"/><path d="M1156.5 1237C1138 1237 1123 1252 1123 1270.5 1123 1289 1138 1304 1156.5 1304 1175 1304 1190 1289 1190 1270.5 1190 1252 1175 1237 1156.5 1237Z" fill="#1E84FA" fill-rule="evenodd"/><path d="M1090 1171C1071.77 1171 1057 1185.77 1057 1204 1057 1222.23 1071.77 1237 1090 1237 1108.23 1237 1123 1222.23 1123 1204 1123 1185.77 1108.23 1171 1090 1171Z" fill="#1E84FA" fill-rule="evenodd"/><path d="M1156.5 1370C1138 1370 1123 1385 1123 1403.5 1123 1422 1138 1437 1156.5 1437 1175 1437 1190 1422 1190 1403.5 1190 1385 1175 1370 1156.5 1370Z" fill="#1E84FA" fill-rule="evenodd"/><path d="M1256.5 1304C1238 1304 1223 1318.77 1223 1337 1223 1355.23 1238 1370 1256.5 1370 1275 1370 1290 1355.23 1290 1337 1290 1318.77 1275 1304 1256.5 1304Z" fill="#1E84FA" fill-rule="evenodd"/><path d="M1324.5 1204C1306 1204 1291 1219 1291 1237.5 1291 1256 1306 1271 1324.5 1271 1343 1271 1358 1256 1358 1237.5 1358 1219 1343 1204 1324.5 1204Z" fill="#1E84FA" fill-rule="evenodd"/><path d="M1429 1171C1410.77 1171 1396 1185.77 1396 1204 1396 1222.23 1410.77 1237 1429 1237 1447.23 1237 1462 1222.23 1462 1204 1462 1185.77 1447.23 1171 1429 1171Z" fill="#1E84FA" fill-rule="evenodd"/><path d="M1362.5 1289C1344 1289 1329 1304 1329 1322.5 1329 1341 1344 1356 1362.5 1356 1381 1356 1396 1341 1396 1322.5 1396 1304 1381 1289 1362.5 1289Z" fill="#1E84FA" fill-rule="evenodd"/><path d="M1367 1370C1348.77 1370 1334 1385 1334 1403.5 1334 1422 1348.77 1437 1367 1437 1385.23 1437 1400 1422 1400 1403.5 1400 1385 1385.23 1370 1367 1370Z" fill="#1E84FA" fill-rule="evenodd"/><path d="M1142.5 1296C1124 1296 1109 1311 1109 1329.5 1109 1348 1124 1363 1142.5 1363 1161 1363 1176 1348 1176 1329.5 1176 1311 1161 1296 1142.5 1296Z" fill="#1E84FA" fill-rule="evenodd"/><path d="M1090 1503C1071.77 1503 1057 1518 1057 1536.5 1057 1555 1071.77 1570 1090 1570 1108.23 1570 1123 1555 1123 1536.5 1123 1518 1108.23 1503 1090 1503Z" fill="#1E84FA" fill-rule="evenodd"/><path d="M1223.5 1437C1205 1437 1190 1452 1190 1470.5 1190 1489 1205 1504 1223.5 1504 1242 1504 1257 1489 1257 1470.5 1257 1452 1242 1437 1223.5 1437Z" fill="#1E84FA" fill-rule="evenodd"/><path d="M1294.5 1476C1276 1476 1261 1491 1261 1509.5 1261 1528 1276 1543 1294.5 1543 1313 1543 1328 1528 1328 1509.5 1328 1491 1313 1476 1294.5 1476Z" fill="#1E84FA" fill-rule="evenodd"/><path d="M1057 1387C1038.77 1387 1024 1402 1024 1420.5 1024 1439 1038.77 1454 1057 1454 1075.23 1454 1090 1439 1090 1420.5 1090 1402 1075.23 1387 1057 1387Z" fill="#1E84FA" fill-rule="evenodd"/><path d="M1298.5 1256 1328 1308 1269 1308 1298.5 1256Z" fill="#FF751F" fill-rule="evenodd"/><path d="M1319.5 1361 1349 1413 1290 1413 1319.5 1361Z" fill="#FF751F" fill-rule="evenodd"/><path d="M1636.5 1330 1666 1382 1607 1382 1636.5 1330Z" fill="#FF751F" fill-rule="evenodd"/><path d="M1438.5 1256 1468 1308 1409 1308 1438.5 1256Z" fill="#FF751F" fill-rule="evenodd"/><path d="M1606.5 1171 1636 1223 1577 1223 1606.5 1171Z" fill="#FF751F" fill-rule="evenodd"/><path d="M1446 1330 1476 1382 1416 1382 1446 1330Z" fill="#FF751F" fill-rule="evenodd"/><path d="M1391 1488C1372.77 1488 1358 1503 1358 1521.5 1358 1540 1372.77 1555 1391 1555 1409.23 1555 1424 1540 1424 1521.5 1424 1503 1409.23 1488 1391 1488Z" fill="#1E84FA" fill-rule="evenodd"/><path d="M1526.5 1461C1508 1461 1493 1476 1493 1494.5 1493 1513 1508 1528 1526.5 1528 1545 1528 1560 1513 1560 1494.5 1560 1476 1545 1461 1526.5 1461Z" fill="#1E84FA" fill-rule="evenodd"/><path d="M1685.5 1175C1667 1175 1652 1190 1652 1208.5 1652 1227 1667 1242 1685.5 1242 1704 1242 1719 1227 1719 1208.5 1719 1190 1704 1175 1685.5 1175Z" fill="#1E84FA" fill-rule="evenodd"/><path d="M1732.5 1256C1714 1256 1699 1271 1699 1289.5 1699 1308 1714 1323 1732.5 1323 1751 1323 1766 1308 1766 1289.5 1766 1271 1751 1256 1732.5 1256Z" fill="#1E84FA" fill-rule="evenodd"/><path d="M1619.5 1237C1601 1237 1586 1252 1586 1270.5 1586 1289 1601 1304 1619.5 1304 1638 1304 1653 1289 1653 1270.5 1653 1252 1638 1237 1619.5 1237Z" fill="#1E84FA" fill-rule="evenodd"/><path d="M1527.5 1183C1509 1183 1494 1197.77 1494 1216 1494 1234.23 1509 1249 1527.5 1249 1546 1249 1561 1234.23 1561 1216 1561 1197.77 1546 1183 1527.5 1183Z" fill="#1E84FA" fill-rule="evenodd"/><path d="M1500.5 1271C1482 1271 1467 1285.77 1467 1304 1467 1322.23 1482 1337 1500.5 1337 1519 1337 1534 1322.23 1534 1304 1534 1285.77 1519 1271 1500.5 1271Z" fill="#1E84FA" fill-rule="evenodd"/><path d="M1479 1413 1509 1465 1449 1465 1479 1413Z" fill="#FF751F" fill-rule="evenodd"/><path d="M1235.5 1504 1265 1556 1206 1556 1235.5 1504Z" fill="#FF751F" fill-rule="evenodd"/><path d="M1614.5 1503C1596 1503 1581 1518 1581 1536.5 1581 1555 1596 1570 1614.5 1570 1633 1570 1648 1555 1648 1536.5 1648 1518 1633 1503 1614.5 1503Z" fill="#1E84FA" fill-rule="evenodd"/><path d="M1472 1506C1453.77 1506 1439 1521 1439 1539.5 1439 1558 1453.77 1573 1472 1573 1490.23 1573 1505 1558 1505 1539.5 1505 1521 1490.23 1506 1472 1506Z" fill="#1E84FA" fill-rule="evenodd"/><path d="M1555 1330C1536.77 1330 1522 1344.77 1522 1363 1522 1381.23 1536.77 1396 1555 1396 1573.23 1396 1588 1381.23 1588 1363 1588 1344.77 1573.23 1330 1555 1330Z" fill="#1E84FA" fill-rule="evenodd"/><path d="M1735.5 1352 1765 1404 1706 1404 1735.5 1352Z" fill="#FF751F" fill-rule="evenodd"/><path d="M1670.5 1428 1700 1480 1641 1480 1670.5 1428Z" fill="#FF751F" fill-rule="evenodd"/><path d="M1702.5 1512 1732 1564 1673 1564 1702.5 1512Z" fill="#FF751F" fill-rule="evenodd"/><path d="M1577 1424 1607 1476 1547 1476 1577 1424Z" fill="#FF751F" fill-rule="evenodd"/><path d="M1262.32 1403.38 1252.15 1402.87 1252.85 1402.87 1242.68 1403.38 1243.37 1403.31 1233.49 1404.83 1234.17 1404.69 1224.63 1407.15 1225.29 1406.95 1216.14 1410.31 1216.77 1410.05 1208.07 1414.26 1208.65 1413.94 1200.45 1418.95 1201 1418.57 1193.34 1424.33 1193.85 1423.91 1186.78 1430.37 1187.24 1429.9 1180.82 1437 1181.24 1436.49 1175.51 1444.19 1175.88 1443.65 1174.61 1445.74 1162.84 1438.63 1164.28 1436.25 1170.4 1428.02 1177.26 1420.43 1184.81 1413.54 1193 1407.38 1201.78 1402.03 1211.08 1397.52 1220.86 1393.93 1231.06 1391.29 1241.63 1389.67 1252.5 1389.12 1263.02 1389.65ZM1161.11 1481.52 1160.31 1486.81 1160.38 1486.12 1159.87 1496.34 1159.87 1495.66 1160.38 1505.88 1160.31 1505.19 1161.82 1515.12 1161.68 1514.45 1164.13 1524.03 1163.93 1523.38 1167.28 1532.57 1167.02 1531.95 1171.21 1540.69 1170.89 1540.11 1175.88 1548.35 1175.51 1547.81 1181.24 1555.51 1180.82 1555 1187.24 1562.1 1186.78 1561.63 1193.85 1568.09 1193.34 1567.67 1198.45 1571.51 1190.19 1582.51 1184.81 1578.46 1177.26 1571.57 1170.4 1563.98 1164.28 1555.75 1158.95 1546.94 1154.47 1537.59 1150.9 1527.77 1148.28 1517.53 1146.66 1506.91 1146.12 1496 1146.66 1485.09 1147.52 1479.46ZM1233.4 1587.11 1234.17 1587.31 1233.49 1587.17 1243.37 1588.69 1242.68 1588.62 1252.85 1589.13 1252.15 1589.13 1262.32 1588.62 1261.63 1588.69 1271.51 1587.17 1270.83 1587.31 1280.37 1584.85 1279.71 1585.05 1288.86 1581.69 1288.23 1581.95 1296.93 1577.74 1296.34 1578.06 1304.55 1573.05 1304 1573.43 1311.66 1567.67 1311.15 1568.09 1318.22 1561.63 1317.76 1562.1 1324.18 1555 1323.76 1555.51 1324.51 1554.5 1335.54 1562.71 1334.6 1563.98 1327.74 1571.57 1320.18 1578.46 1312 1584.62 1303.22 1589.97 1293.92 1594.48 1284.14 1598.07 1273.94 1600.71 1263.37 1602.33 1252.5 1602.88 1241.63 1602.33 1231.06 1600.71 1229.95 1600.43ZM1341.81 1520.35 1343.32 1514.45 1343.18 1515.12 1344.69 1505.19 1344.62 1505.88 1345.13 1495.66 1345.13 1496.34 1344.62 1486.12 1344.69 1486.81 1343.18 1476.88 1343.32 1477.55 1340.87 1467.97 1341.07 1468.62 1337.72 1459.43 1337.98 1460.05 1333.79 1451.31 1334.11 1451.89 1329.12 1443.65 1329.49 1444.19 1323.76 1436.49 1324.18 1437 1317.76 1429.9 1318.22 1430.37 1314.4 1426.87 1323.67 1416.72 1327.74 1420.43 1334.6 1428.02 1340.72 1436.25 1346.05 1445.06 1350.53 1454.41 1354.1 1464.23 1356.72 1474.47 1358.34 1485.09 1358.88 1496 1358.34 1506.91 1356.72 1517.53 1355.13 1523.76ZM1281.35 1407.55 1279.71 1406.95 1280.37 1407.15 1270.83 1404.69 1271.51 1404.83 1261.63 1403.31 1263.72 1389.72 1273.94 1391.29 1284.14 1393.93 1286.1 1394.64Z"/><path d="M231.5 1110C214.655 1110 201 1124.77 201 1143 201 1161.23 214.655 1176 231.5 1176 248.345 1176 262 1161.23 262 1143 262 1124.77 248.345 1110 231.5 1110Z" fill="#1E84FA" fill-rule="evenodd"/><path d="M325 1110C306.774 1110 292 1124.77 292 1143 292 1161.23 306.774 1176 325 1176 343.225 1176 358 1161.23 358 1143 358 1124.77 343.225 1110 325 1110Z" fill="#1E84FA" fill-rule="evenodd"/><path d="M272.5 1188 302 1240 243 1240 272.5 1188Z" fill="#FF751F" fill-rule="evenodd"/><path d="M736 1114C717.774 1114 703 1129 703 1147.5 703 1166 717.774 1181 736 1181 754.225 1181 769 1166 769 1147.5 769 1129 754.225 1114 736 1114Z" fill="#1E84FA" fill-rule="evenodd"/><path d="M839.5 1112C820.999 1112 806 1126.77 806 1145 806 1163.23 820.999 1178 839.5 1178 858.002 1178 873 1163.23 873 1145 873 1126.77 858.002 1112 839.5 1112Z" fill="#1E84FA" fill-rule="evenodd"/><g><g><g><path d="M262.326 13.2793C258.947 10.4931 254.382 9.72238 250.292 8.65529 239.147 5.75043 227.942 2.84557 216.738 0.118566 212.232-1.00781 210.335 5.869 214.841 7.11394 224.86 9.90023 234.878 12.5087 244.897 15.1764 247.269 15.7692 250.114 16.1842 252.782 16.9549 189.231 27.6258 124.672 32.6648 60.2313 31.0642 41.3794 30.5899 22.5867 29.2264 3.7941 28.0408-1.3635 27.6851-1.18566 35.4511 3.7941 35.9847 37.2296 39.1859 71.1394 39.5416 104.693 38.8895 138.366 38.1188 171.92 35.5697 205.356 31.4199 222.548 29.2857 239.68 26.5587 256.695 23.4167 255.924 24.1874 254.975 24.8988 254.323 25.373 247.861 30.1749 242.052 34.6212 237.487 41.3794 232.981 48.0783 230.136 55.8444 229.365 63.8476 228.95 67.8195 235.768 68.768 236.361 64.7961 237.665 55.9037 240.985 47.5448 246.972 40.7866 249.758 37.6446 252.841 35.0954 256.339 32.8427 259.718 30.6492 263.334 28.1593 265.053 24.3652 266.773 20.4526 265.646 16.0064 262.326 13.2793Z" transform="matrix(1.00695 0 0 -1 393.373 1211.88)"/></g></g></g><path d="M794.5 1184C775.998 1184 761 1199 761 1217.5 761 1236 775.998 1251 794.5 1251 813.002 1251 828 1236 828 1217.5 828 1199 813.002 1184 794.5 1184Z" fill="#1E84FA" fill-rule="evenodd"/><path d="M114 1672 1789 1672 1789 2133 114 2133Z" stroke="#000000" stroke-width="13.75" stroke-linecap="square" stroke-miterlimit="8" fill="none" fill-rule="evenodd"/><path d="M455.5 1717C436.999 1717 422 1732 422 1750.5 422 1769 436.999 1784 455.5 1784 474.002 1784 489 1769 489 1750.5 489 1732 474.002 1717 455.5 1717Z" fill="#1E84FA" fill-rule="evenodd"/><path d="M228 1817C209.774 1817 195 1832 195 1850.5 195 1869 209.774 1884 228 1884 246.225 1884 261 1869 261 1850.5 261 1832 246.225 1817 228 1817Z" fill="#1E84FA" fill-rule="evenodd"/><path d="M269 1965C250.775 1965 236 1979.77 236 1998 236 2016.23 250.775 2031 269 2031 287.226 2031 302 2016.23 302 1998 302 1979.77 287.226 1965 269 1965Z" fill="#1E84FA" fill-rule="evenodd"/><path d="M328.5 1689C309.998 1689 295 1704 295 1722.5 295 1741 309.998 1756 328.5 1756 347.002 1756 362 1741 362 1722.5 362 1704 347.002 1689 328.5 1689Z" fill="#1E84FA" fill-rule="evenodd"/><path d="M328 1917C309.775 1917 295 1931.77 295 1950 295 1968.23 309.775 1983 328 1983 346.225 1983 361 1968.23 361 1950 361 1931.77 346.225 1917 328 1917Z" fill="#1E84FA" fill-rule="evenodd"/><path d="M428 1850C409.775 1850 395 1865 395 1883.5 395 1902 409.775 1917 428 1917 446.225 1917 461 1902 461 1883.5 461 1865 446.225 1850 428 1850Z" fill="#1E84FA" fill-rule="evenodd"/><path d="M661 1725C642.775 1725 628 1740 628 1758.5 628 1777 642.775 1792 661 1792 679.226 1792 694 1777 694 1758.5 694 1740 679.226 1725 661 1725Z" fill="#1E84FA" fill-rule="evenodd"/><path d="M473.5 1784C454.998 1784 440 1798.77 440 1817 440 1835.23 454.998 1850 473.5 1850 492.002 1850 507 1835.23 507 1817 507 1798.77 492.002 1784 473.5 1784Z" fill="#1E84FA" fill-rule="evenodd"/><path d="M594.5 1792C575.998 1792 561 1806.77 561 1825 561 1843.23 575.998 1858 594.5 1858 613.002 1858 628 1843.23 628 1825 628 1806.77 613.002 1792 594.5 1792Z" fill="#1E84FA" fill-rule="evenodd"/><path d="M527.5 1725C508.998 1725 494 1740 494 1758.5 494 1777 508.998 1792 527.5 1792 546.002 1792 561 1777 561 1758.5 561 1740 546.002 1725 527.5 1725Z" fill="#1E84FA" fill-rule="evenodd"/><path d="M594.5 1925C575.998 1925 561 1939.77 561 1958 561 1976.23 575.998 1991 594.5 1991 613.002 1991 628 1976.23 628 1958 628 1939.77 613.002 1925 594.5 1925Z" fill="#1E84FA" fill-rule="evenodd"/><path d="M694.5 1858C675.998 1858 661 1873 661 1891.5 661 1910 675.998 1925 694.5 1925 713.002 1925 728 1910 728 1891.5 728 1873 713.002 1858 694.5 1858Z" fill="#1E84FA" fill-rule="evenodd"/><path d="M440 1965C421.775 1965 407 1979.77 407 1998 407 2016.23 421.775 2031 440 2031 458.225 2031 473 2016.23 473 1998 473 1979.77 458.225 1965 440 1965Z" fill="#1E84FA" fill-rule="evenodd"/><path d="M198.5 1925C179.998 1925 165 1939.77 165 1958 165 1976.23 179.998 1991 198.5 1991 217.002 1991 232 1976.23 232 1958 232 1939.77 217.002 1925 198.5 1925Z" fill="#1E84FA" fill-rule="evenodd"/><path d="M527.5 1998C508.998 1998 494 2012.77 494 2031 494 2049.23 508.998 2064 527.5 2064 546.002 2064 561 2049.23 561 2031 561 2012.77 546.002 1998 527.5 1998Z" fill="#1E84FA" fill-rule="evenodd"/><path d="M173.5 1725C154.998 1725 140 1740 140 1758.5 140 1777 154.998 1792 173.5 1792 192.002 1792 207 1777 207 1758.5 207 1740 192.002 1725 173.5 1725Z" fill="#1E84FA" fill-rule="evenodd"/><path d="M211 2018C192.775 2018 178 2032.77 178 2051 178 2069.23 192.775 2084 211 2084 229.225 2084 244 2069.23 244 2051 244 2032.77 229.225 2018 211 2018Z" fill="#1E84FA" fill-rule="evenodd"/><path d="M325 2034C306.774 2034 292 2048.77 292 2067 292 2085.23 306.774 2100 325 2100 343.225 2100 358 2085.23 358 2067 358 2048.77 343.225 2034 325 2034Z" fill="#1E84FA" fill-rule="evenodd"/><path d="M505.5 1875 535 1927 476 1927 505.5 1875Z" fill="#FF751F" fill-rule="evenodd"/><path d="M576.5 1856 606 1908 547 1908 576.5 1856Z" fill="#FF751F" fill-rule="evenodd"/><path d="M256.5 1871 286 1923 227 1923 256.5 1871Z" fill="#FF751F" fill-rule="evenodd"/><path d="M327.5 1852 357 1904 298 1904 327.5 1852Z" fill="#FF751F" fill-rule="evenodd"/><path d="M831.5 1691 861 1743 802 1743 831.5 1691Z" fill="#FF751F" fill-rule="evenodd"/><path d="M891 1791 921 1843 861 1843 891 1791Z" fill="#FF751F" fill-rule="evenodd"/><path d="M843.5 1750 873 1802 814 1802 843.5 1750Z" fill="#FF751F" fill-rule="evenodd"/><path d="M802 1961 832 2014 772 2014 802 1961Z" fill="#FF751F" fill-rule="evenodd"/><path d="M879 1852 909 1904 849 1904 879 1852Z" fill="#FF751F" fill-rule="evenodd"/><path d="M777 2018 807 2070 747 2070 777 2018Z" fill="#FF751F" fill-rule="evenodd"/><path d="M840 1909 870 1962 810 1962 840 1909Z" fill="#FF751F" fill-rule="evenodd"/><path d="M739 2058 769 2111 709 2111 739 2058Z" fill="#FF751F" fill-rule="evenodd"/><path d="M921.526 1798.32 981.336 1794.27 955.381 1847.79 921.526 1798.32Z" fill="#FF751F" fill-rule="evenodd"/><path d="M1045.34 1755.25 1105.15 1751.2 1079.2 1804.72 1045.34 1755.25Z" fill="#FF751F" fill-rule="evenodd"/><path d="M988.082 1780.36 1047.89 1776.31 1021.94 1829.83 988.082 1780.36Z" fill="#FF751F" fill-rule="evenodd"/><path d="M1159.85 1909.94 1219.66 1905.89 1193.7 1959.41 1159.85 1909.94Z" fill="#FF751F" fill-rule="evenodd"/><path d="M1095.09 1792.89 1154.9 1788.84 1128.95 1842.37 1095.09 1792.89Z" fill="#FF751F" fill-rule="evenodd"/><path d="M1199.74 1957.01 1259.55 1952.96 1233.6 2006.48 1199.74 1957.01Z" fill="#FF751F" fill-rule="evenodd"/><path d="M1129.69 1852.98 1189.5 1848.93 1163.55 1902.45 1129.69 1852.98Z" fill="#FF751F" fill-rule="evenodd"/><path d="M1219.62 2008.98 1279.43 2004.93 1253.48 2058.46 1219.62 2008.98Z" fill="#FF751F" fill-rule="evenodd"/><path d="M1618.21 1840.12 1594.74 1895.28 1558.77 1847.9 1618.21 1840.12Z" fill="#FF751F" fill-rule="evenodd"/><path d="M1657.76 1936.07 1634.28 1991.23 1598.32 1943.85 1657.76 1936.07Z" fill="#FF751F" fill-rule="evenodd"/><path d="M1661.31 1873.64 1637.83 1928.8 1601.87 1881.42 1661.31 1873.64Z" fill="#FF751F" fill-rule="evenodd"/><path d="M1467.99 1968.1 1444.51 2023.26 1408.55 1975.88 1467.99 1968.1Z" fill="#FF751F" fill-rule="evenodd"/><path d="M1601.67 1963.38 1578.19 2018.53 1542.23 1971.15 1601.67 1963.38Z" fill="#FF751F" fill-rule="evenodd"/><path d="M1407.95 1982.35 1384.48 2037.51 1348.51 1990.13 1407.95 1982.35Z" fill="#FF751F" fill-rule="evenodd"/><path d="M1532.43 1967.01 1508.95 2022.17 1472.99 1974.79 1532.43 1967.01Z" fill="#FF751F" fill-rule="evenodd"/><path d="M1352.61 1976.53 1329.13 2031.69 1293.17 1984.31 1352.61 1976.53Z" fill="#FF751F" fill-rule="evenodd"/><path d="M1383.25 1827.47 1443.06 1823.42 1417.11 1876.95 1383.25 1827.47Z" fill="#FF751F" fill-rule="evenodd"/><path d="M1423.15 1734.19 1482.96 1730.14 1457 1783.66 1423.15 1734.19Z" fill="#FF751F" fill-rule="evenodd"/><path d="M1423.15 1874.54 1482.96 1870.49 1457 1924.01 1423.15 1874.54Z" fill="#FF751F" fill-rule="evenodd"/><path d="M1353.1 1770.51 1412.91 1766.46 1386.95 1819.99 1353.1 1770.51Z" fill="#FF751F" fill-rule="evenodd"/><path d="M1443.03 1926.52 1502.84 1922.47 1476.88 1975.99 1443.03 1926.52Z" fill="#FF751F" fill-rule="evenodd"/><path d="M1494.3 1713.66 1554.11 1709.61 1528.15 1763.14 1494.3 1713.66Z" fill="#FF751F" fill-rule="evenodd"/><path d="M1567.96 1704.12 1627.77 1700.07 1601.82 1753.6 1567.96 1704.12Z" fill="#FF751F" fill-rule="evenodd"/><path d="M1316.7 1713.66 1376.51 1709.61 1350.56 1763.14 1316.7 1713.66Z" fill="#FF751F" fill-rule="evenodd"/><path d="M986.222 2070.68 1046.03 2066.62 1020.08 2120.15 986.222 2070.68Z" fill="#FF751F" fill-rule="evenodd"/><path d="M979.885 1995.12 1039.69 1991.07 1013.74 2044.6 979.885 1995.12Z" fill="#FF751F" fill-rule="evenodd"/><path d="M957.92 1928.33 1017.73 1924.28 991.774 1977.8 957.92 1928.33Z" fill="#FF751F" fill-rule="evenodd"/><path d="M949.829 1854.7 1009.64 1850.65 983.683 1904.17 949.829 1854.7Z" fill="#FF751F" fill-rule="evenodd"/><path d="M380 1883 410 1935 350 1935 380 1883Z" fill="#FF751F" fill-rule="evenodd"/><path d="M422.5 1926 452 1978 393 1978 422.5 1926Z" fill="#FF751F" fill-rule="evenodd"/><path d="M619 1899 649 1951 589 1951 619 1899Z" fill="#FF751F" fill-rule="evenodd"/><path d="M661.5 1941 691 1993 632 1993 661.5 1941Z" fill="#FF751F" fill-rule="evenodd"/><path d="M704 1983 734 2035 674 2035 704 1983Z" fill="#FF751F" fill-rule="evenodd"/><path d="M657.5 1845 687 1897 628 1897 657.5 1845Z" fill="#FF751F" fill-rule="evenodd"/><path d="M724 1830 754 1882 694 1882 724 1830Z" fill="#FF751F" fill-rule="evenodd"/><path d="M667.5 1722 697 1774 638 1774 667.5 1722Z" fill="#FF751F" fill-rule="evenodd"/><path d="M726.5 1765 756 1817 697 1817 726.5 1765Z" fill="#FF751F" fill-rule="evenodd"/><path d="M606.5 1687 636 1739 577 1739 606.5 1687Z" fill="#FF751F" fill-rule="evenodd"/><path d="M325 1784 355 1836 295 1836 325 1784Z" fill="#FF751F" fill-rule="evenodd"/><path d="M286 1733 316 1785 256 1785 286 1733Z" fill="#FF751F" fill-rule="evenodd"/><path d="M236.5 1689 266 1742 207 1742 236.5 1689Z" fill="#FF751F" fill-rule="evenodd"/><path d="M426 2038C407.774 2038 393 2052.77 393 2071 393 2089.23 407.774 2104 426 2104 444.225 2104 459 2089.23 459 2071 459 2052.77 444.225 2038 426 2038Z" fill="#1E84FA" fill-rule="evenodd"/><path d="M392.5 1760C373.998 1760 359 1774.77 359 1793 359 1811.23 373.998 1826 392.5 1826 411.001 1826 426 1811.23 426 1793 426 1774.77 411.001 1760 392.5 1760Z" fill="#1E84FA" fill-rule="evenodd"/><path d="M617.5 2034C598.998 2034 584 2048.77 584 2067 584 2085.23 598.998 2100 617.5 2100 636.002 2100 651 2085.23 651 2067 651 2048.77 636.002 2034 617.5 2034Z" fill="#1E84FA" fill-rule="evenodd"/><path d="M858 2044C839.775 2044 825 2059 825 2077.5 825 2096 839.775 2111 858 2111 876.225 2111 891 2096 891 2077.5 891 2059 876.225 2044 858 2044Z" fill="#1E84FA" fill-rule="evenodd"/><path d="M917 1687C898.775 1687 884 1701.77 884 1720 884 1738.23 898.775 1753 917 1753 935.226 1753 950 1738.23 950 1720 950 1701.77 935.226 1687 917 1687Z" fill="#1E84FA" fill-rule="evenodd"/><path d="M937 2009C918.775 2009 904 2024 904 2042.5 904 2061 918.775 2076 937 2076 955.226 2076 970 2061 970 2042.5 970 2024 955.226 2009 937 2009Z" fill="#1E84FA" fill-rule="evenodd"/><path d="M745 1927C726.774 1927 712 1942 712 1960.5 712 1979 726.774 1994 745 1994 763.225 1994 778 1979 778 1960.5 778 1942 763.225 1927 745 1927Z" fill="#1E84FA" fill-rule="evenodd"/><path d="M806.5 1845C787.999 1845 773 1859.77 773 1878 773 1896.23 787.999 1911 806.5 1911 825.002 1911 840 1896.23 840 1878 840 1859.77 825.002 1845 806.5 1845Z" fill="#1E84FA" fill-rule="evenodd"/><path d="M903.5 1928C884.998 1928 870 1943 870 1961.5 870 1980 884.998 1995 903.5 1995 922.002 1995 937 1980 937 1961.5 937 1943 922.002 1928 903.5 1928Z" fill="#1E84FA" fill-rule="evenodd"/><path d="M740.5 1692C721.999 1692 707 1707 707 1725.5 707 1744 721.999 1759 740.5 1759 759.002 1759 774 1744 774 1725.5 774 1707 759.002 1692 740.5 1692Z" fill="#1E84FA" fill-rule="evenodd"/><path d="M787 1763C768.774 1763 754 1778 754 1796.5 754 1815 768.774 1830 787 1830 805.225 1830 820 1815 820 1796.5 820 1778 805.225 1763 787 1763Z" fill="#1E84FA" fill-rule="evenodd"/><path d="M1009.5 1691C990.998 1691 976 1706 976 1724.5 976 1743 990.998 1758 1009.5 1758 1028 1758 1043 1743 1043 1724.5 1043 1706 1028 1691 1009.5 1691Z" fill="#1E84FA" fill-rule="evenodd"/><path d="M1094.5 1691C1076 1691 1061 1706 1061 1724.5 1061 1743 1076 1758 1094.5 1758 1113 1758 1128 1743 1128 1724.5 1128 1706 1113 1691 1094.5 1691Z" fill="#1E84FA" fill-rule="evenodd"/><path d="M1061 1826C1042.77 1826 1028 1841 1028 1859.5 1028 1878 1042.77 1893 1061 1893 1079.23 1893 1094 1878 1094 1859.5 1094 1841 1079.23 1826 1061 1826Z" fill="#1E84FA" fill-rule="evenodd"/><path d="M1071 1931C1052.77 1931 1038 1946 1038 1964.5 1038 1983 1052.77 1998 1071 1998 1089.23 1998 1104 1983 1104 1964.5 1104 1946 1089.23 1931 1071 1931Z" fill="#1E84FA" fill-rule="evenodd"/><path d="M1158.5 1952C1140 1952 1125 1967 1125 1985.5 1125 2004 1140 2019 1158.5 2019 1177 2019 1192 2004 1192 1985.5 1192 1967 1177 1952 1158.5 1952Z" fill="#1E84FA" fill-rule="evenodd"/><path d="M1091.5 2020C1073 2020 1058 2035 1058 2053.5 1058 2072 1073 2087 1091.5 2087 1110 2087 1125 2072 1125 2053.5 1125 2035 1110 2020 1091.5 2020Z" fill="#1E84FA" fill-rule="evenodd"/><path d="M1186.5 2043C1168 2043 1153 2057.77 1153 2076 1153 2094.23 1168 2109 1186.5 2109 1205 2109 1220 2094.23 1220 2076 1220 2057.77 1205 2043 1186.5 2043Z" fill="#1E84FA" fill-rule="evenodd"/><path d="M1190 1700C1171.77 1700 1157 1714.77 1157 1733 1157 1751.23 1171.77 1766 1190 1766 1208.23 1766 1223 1751.23 1223 1733 1223 1714.77 1208.23 1700 1190 1700Z" fill="#1E84FA" fill-rule="evenodd"/><path d="M1228 1785C1209.77 1785 1195 1800 1195 1818.5 1195 1837 1209.77 1852 1228 1852 1246.23 1852 1261 1837 1261 1818.5 1261 1800 1246.23 1785 1228 1785Z" fill="#1E84FA" fill-rule="evenodd"/><path d="M1280 1861C1261.77 1861 1247 1875.77 1247 1894 1247 1912.23 1261.77 1927 1280 1927 1298.23 1927 1313 1912.23 1313 1894 1313 1875.77 1298.23 1861 1280 1861Z" fill="#1E84FA" fill-rule="evenodd"/><path d="M1286.5 1732C1268 1732 1253 1746.77 1253 1765 1253 1783.23 1268 1798 1286.5 1798 1305 1798 1320 1783.23 1320 1765 1320 1746.77 1305 1732 1286.5 1732Z" fill="#1E84FA" fill-rule="evenodd"/><path d="M1337.5 1810C1319 1810 1304 1824.77 1304 1843 1304 1861.23 1319 1876 1337.5 1876 1356 1876 1371 1861.23 1371 1843 1371 1824.77 1356 1810 1337.5 1810Z" fill="#1E84FA" fill-rule="evenodd"/><path d="M1379.5 1893C1361 1893 1346 1907.77 1346 1926 1346 1944.23 1361 1959 1379.5 1959 1398 1959 1413 1944.23 1413 1926 1413 1907.77 1398 1893 1379.5 1893Z" fill="#1E84FA" fill-rule="evenodd"/><path d="M1315.5 2031C1297 2031 1282 2046 1282 2064.5 1282 2083 1297 2098 1315.5 2098 1334 2098 1349 2083 1349 2064.5 1349 2046 1334 2031 1315.5 2031Z" fill="#1E84FA" fill-rule="evenodd"/><path d="M1403.5 2056C1385 2056 1370 2071 1370 2089.5 1370 2108 1385 2123 1403.5 2123 1422 2123 1437 2108 1437 2089.5 1437 2071 1422 2056 1403.5 2056Z" fill="#1E84FA" fill-rule="evenodd"/><path d="M1480 2008C1461.77 2008 1447 2022.77 1447 2041 1447 2059.23 1461.77 2074 1480 2074 1498.23 2074 1513 2059.23 1513 2041 1513 2022.77 1498.23 2008 1480 2008Z" fill="#1E84FA" fill-rule="evenodd"/><path d="M1542.5 2051C1524 2051 1509 2066 1509 2084.5 1509 2103 1524 2118 1542.5 2118 1561 2118 1576 2103 1576 2084.5 1576 2066 1561 2051 1542.5 2051Z" fill="#1E84FA" fill-rule="evenodd"/><path d="M1601.5 2011C1583 2011 1568 2026 1568 2044.5 1568 2063 1583 2078 1601.5 2078 1620 2078 1635 2063 1635 2044.5 1635 2026 1620 2011 1601.5 2011Z" fill="#1E84FA" fill-rule="evenodd"/><path d="M1680.5 2049C1662 2049 1647 2063.77 1647 2082 1647 2100.23 1662 2115 1680.5 2115 1699 2115 1714 2100.23 1714 2082 1714 2063.77 1699 2049 1680.5 2049Z" fill="#1E84FA" fill-rule="evenodd"/><path d="M1731.5 1980C1713 1980 1698 1995 1698 2013.5 1698 2032 1713 2047 1731.5 2047 1750 2047 1765 2032 1765 2013.5 1765 1995 1750 1980 1731.5 1980Z" fill="#1E84FA" fill-rule="evenodd"/><path d="M1544 1896C1525.77 1896 1511 1910.77 1511 1929 1511 1947.23 1525.77 1962 1544 1962 1562.23 1962 1577 1947.23 1577 1929 1577 1910.77 1562.23 1896 1544 1896Z" fill="#1E84FA" fill-rule="evenodd"/><path d="M1488 1799C1469.77 1799 1455 1814 1455 1832.5 1455 1851 1469.77 1866 1488 1866 1506.23 1866 1521 1851 1521 1832.5 1521 1814 1506.23 1799 1488 1799Z" fill="#1E84FA" fill-rule="evenodd"/><path d="M1557.5 1760C1539 1760 1524 1774.77 1524 1793 1524 1811.23 1539 1826 1557.5 1826 1576 1826 1591 1811.23 1591 1793 1591 1774.77 1576 1760 1557.5 1760Z" fill="#1E84FA" fill-rule="evenodd"/><path d="M1664.5 1708C1646 1708 1631 1723 1631 1741.5 1631 1760 1646 1775 1664.5 1775 1683 1775 1698 1760 1698 1741.5 1698 1723 1683 1708 1664.5 1708Z" fill="#1E84FA" fill-rule="evenodd"/><path d="M1742 1722C1723.77 1722 1709 1737 1709 1755.5 1709 1774 1723.77 1789 1742 1789 1760.23 1789 1775 1774 1775 1755.5 1775 1737 1760.23 1722 1742 1722Z" fill="#1E84FA" fill-rule="evenodd"/><path d="M1645 1786C1626.77 1786 1612 1800.77 1612 1819 1612 1837.23 1626.77 1852 1645 1852 1663.23 1852 1678 1837.23 1678 1819 1678 1800.77 1663.23 1786 1645 1786Z" fill="#1E84FA" fill-rule="evenodd"/><path d="M1733.5 1804C1715 1804 1700 1819 1700 1837.5 1700 1856 1715 1871 1733.5 1871 1752 1871 1767 1856 1767 1837.5 1767 1819 1752 1804 1733.5 1804Z" fill="#1E84FA" fill-rule="evenodd"/><path d="M1709 1888C1690.77 1888 1676 1903 1676 1921.5 1676 1940 1690.77 1955 1709 1955 1727.23 1955 1742 1940 1742 1921.5 1742 1903 1727.23 1888 1709 1888Z" fill="#1E84FA" fill-rule="evenodd"/><path d="M298.5 1370C279.998 1370 265 1385 265 1403.5 265 1422 279.998 1437 298.5 1437 317.002 1437 332 1422 332 1403.5 332 1385 317.002 1370 298.5 1370Z" fill="#1E84FA" fill-rule="evenodd"/><g><g><g><path d="M264.15 13.3716C260.747 10.566 256.151 9.78996 252.032 8.71545 240.809 5.7904 229.527 2.86535 218.244 0.11939 213.708-1.01481 211.797 5.90979 216.334 7.16338 226.423 9.96904 236.511 12.5956 246.599 15.2819 248.987 15.8788 251.853 16.2967 254.539 17.0727 190.546 27.8178 125.538 32.8919 60.65 31.2801 41.667 30.8025 22.7437 29.4296 3.82047 28.2357-1.37298 27.8775-1.1939 35.6975 3.82047 36.2348 37.4884 39.4583 71.6338 39.8165 105.421 39.1598 139.328 38.3838 173.115 35.8169 206.783 31.6383 224.094 29.4893 241.346 26.7433 258.479 23.5795 257.703 24.3555 256.748 25.0718 256.091 25.5494 249.584 30.3847 243.734 34.8618 239.138 41.667 234.601 48.4125 231.735 56.2326 230.959 64.2914 230.542 68.2909 237.406 69.246 238.003 65.2465 239.317 56.2923 242.66 47.8753 248.689 41.0701 251.494 37.9062 254.599 35.3394 258.121 33.0709 261.523 30.8622 265.165 28.3551 266.896 24.5346 268.627 20.5947 267.493 16.1176 264.15 13.3716Z" transform="matrix(1 0 0 -1.00728 380.373 1439.86)"/></g></g></g><g><g><g><path d="M739.688 1341.19C737.097 1341.37 735.132 1343.61 735.301 1346.21L736.993 1371.22C737.097 1372.7 738.269 1373.91 739.792 1374.02 741.458 1374.13 742.89 1372.87 743.007 1371.22L744.699 1346.21C744.712 1346.02 744.712 1345.78 744.699 1345.58 744.53 1342.97 742.278 1341.01 739.688 1341.19Z" fill="#FFFFFF"/><path d="M715.385 1382.65C716.504 1383.62 718.196 1383.65 719.355 1382.65 720.605 1381.55 720.735 1379.64 719.641 1378.39L703.162 1359.52C703.032 1359.36 702.862 1359.2 702.706 1359.06 700.741 1357.34 697.773 1357.55 696.055 1359.52 694.349 1361.48 694.544 1364.45 696.51 1366.17L715.385 1382.65Z" fill="#FFFFFF"/><path d="M711.011 1403.21C711.128 1401.55 709.866 1400.12 708.199 1400L683.194 1398.31C682.998 1398.29 682.764 1398.29 682.556 1398.31 679.965 1398.48 678 1400.73 678.169 1403.32 678.351 1405.91 680.59 1407.87 683.194 1407.71L708.199 1406.01C709.683 1405.91 710.907 1404.74 711.011 1403.21Z" fill="#FFFFFF"/><path d="M715.385 1423.37 696.51 1439.84C696.354 1439.97 696.198 1440.14 696.055 1440.3 694.349 1442.27 694.544 1445.23 696.51 1446.95 698.476 1448.67 701.444 1448.46 703.162 1446.5L719.641 1427.62C720.618 1426.5 720.644 1424.81 719.641 1423.65 718.548 1422.4 716.647 1422.27 715.385 1423.37Z" fill="#FFFFFF"/><path d="M740.208 1432C738.542 1431.88 737.11 1433.14 736.993 1434.79L735.301 1459.8C735.288 1459.99 735.288 1460.23 735.301 1460.44 735.483 1463.03 737.722 1464.99 740.325 1464.82 742.916 1464.64 744.881 1462.4 744.712 1459.8L743.02 1434.79C742.916 1433.32 741.731 1432.1 740.208 1432Z" fill="#FFFFFF"/><path d="M764.615 1423.37C763.496 1422.39 761.803 1422.36 760.645 1423.37 759.395 1424.46 759.265 1426.37 760.359 1427.62L776.838 1446.5C776.968 1446.65 777.138 1446.81 777.294 1446.95 779.259 1448.67 782.227 1448.46 783.945 1446.5 785.651 1444.53 785.455 1441.56 783.49 1439.84L764.615 1423.37Z" fill="#FFFFFF"/><path d="M796.806 1398.31 771.801 1400C770.317 1400.1 769.093 1401.29 768.989 1402.81 768.872 1404.48 770.134 1405.91 771.801 1406.03L796.806 1407.72C797.001 1407.73 797.236 1407.73 797.444 1407.72 800.034 1407.55 802 1405.3 801.831 1402.71 801.649 1400.09 799.397 1398.13 796.806 1398.31Z" fill="#FFFFFF"/><path d="M764.615 1382.65 783.49 1366.17C783.646 1366.04 783.802 1365.87 783.945 1365.71 785.651 1363.75 785.455 1360.78 783.49 1359.06 781.524 1357.34 778.556 1357.55 776.838 1359.52L760.359 1378.39C759.382 1379.51 759.356 1381.2 760.359 1382.36 761.452 1383.61 763.352 1383.74 764.615 1382.65Z" fill="#FFFFFF"/></g></g></g><text font-family="Instrument Sans, sans-serif" font-weight="400" font-size="48" transform="matrix(1 0 0 1 978.104 570)">i.e</text><text fill="#FF751F" font-family="Instrument Sans, sans-serif" font-weight="400" font-size="48" transform="matrix(1 0 0 1 1048.57 570)">Orange</text><text font-family="Instrument Sans, sans-serif" font-weight="400" font-size="48" transform="matrix(1 0 0 1 1240.5 570)">moves faster than </text><text fill="#1E84FA" font-family="Instrument Sans, sans-serif" font-weight="400" font-size="48" transform="matrix(1 0 0 1 1695.4 570)">blue </text><text fill="#2F80AB" font-family="Instrument Sans, sans-serif" font-weight="400" font-size="48" transform="matrix(1 0 0 1 106.84 1320)">2 blues</text><text font-family="Instrument Sans, sans-serif" font-weight="400" font-size="48" transform="matrix(1 0 0 1 296.476 1320)">convert </text><text fill="#FF751F" font-family="Instrument Sans, sans-serif" font-weight="400" font-size="48" transform="matrix(1 0 0 1 495.278 1320)">1 orange</text><text font-family="Instrument Sans, sans-serif" font-weight="400" font-size="48" transform="matrix(1 0 0 1 718.142 1320)">to a blue</text><text font-family="Instrument Sans, sans-serif" font-weight="400" font-size="53" transform="matrix(1 0 0 1 99.6344 2206)">When diffusion and reactions take place together patterns form</text><text fill="#2F80AB" font-family="Instrument Sans, sans-serif" font-weight="400" font-size="48" transform="matrix(1 0 0 1 208.921 1517)">Blue</text><text font-family="Instrument Sans, sans-serif" font-weight="400" font-size="48" transform="matrix(1 0 0 1 324.077 1517)">disappears over time</text><text font-family="Instrument Sans, sans-serif" font-weight="400" font-size="48" transform="matrix(1 0 0 1 153.634 573)">Let‘s start with two chemicals</text><text fill="#FF751F" font-family="Instrument Sans, sans-serif" font-weight="400" font-size="49" transform="matrix(1 0 0 1 996.661 497)">Orange</text><text fill="#233D00" font-family="Instrument Sans, sans-serif" font-weight="400" font-size="49" transform="matrix(1 0 0 1 1188.59 497)">diffuses faster than  </text><text fill="#1E84FA" font-family="Instrument Sans, sans-serif" font-weight="400" font-size="49" transform="matrix(1 0 0 1 1694.47 497)">blue </text><text fill="#233D00" font-family="Instrument Sans, sans-serif" font-weight="400" font-size="49" transform="matrix(1 0 0 1 387.635 1604)">“Reactions”</text></g></svg>